<svg width="68" height="68" viewBox="0 0 68 68" fill="none" xmlns="http://www.w3.org/2000/svg">
<path d="M67.5 51.75H4.5V15.75C4.5 13.2649 6.51487 11.25 9 11.25H63C65.4851 11.25 67.5 13.2649 67.5 15.75V51.75Z" fill="#353744"/>
<path d="M67.5 51.75H4.5V54C4.5 56.4851 6.51487 58.5 9 58.5H63C65.4851 58.5 67.5 56.4851 67.5 54V51.75Z" fill="#808080"/>
<path d="M63 51.75H4.5V15.75C4.5 13.2649 6.51487 11.25 9 11.25H58.5C60.9851 11.25 63 13.2649 63 15.75V51.75Z" fill="#55525B"/>
<path d="M63 51.75H4.5V54C4.5 56.4851 6.51487 58.5 9 58.5H58.5C60.9851 58.5 63 56.4851 63 54V51.75Z" fill="#DBDEE3"/>
<path d="M56.8125 15.75H10.6875C9.756 15.75 9 16.506 9 17.4375V45.5625C9 46.494 9.756 47.25 10.6875 47.25H56.8125C57.744 47.25 58.5 46.494 58.5 45.5625V17.4375C58.5 16.506 57.744 15.75 56.8125 15.75Z" fill="#FBBE18"/>
<path d="M15.75 24.75H40.5C41.7431 24.75 42.75 23.7431 42.75 22.5C42.75 21.2569 41.7431 20.25 40.5 20.25H15.75C14.5069 20.25 13.5 21.2569 13.5 22.5C13.5 23.7431 14.5069 24.75 15.75 24.75Z" fill="#F68820"/>
<path d="M15.75 33.75H40.5C41.7431 33.75 42.75 32.7431 42.75 31.5C42.75 30.2569 41.7431 29.25 40.5 29.25H15.75C14.5069 29.25 13.5 30.2569 13.5 31.5C13.5 32.7431 14.5069 33.75 15.75 33.75Z" fill="#F68820"/>
<path d="M15.75 42.75H40.5C41.7431 42.75 42.75 41.7431 42.75 40.5C42.75 39.2569 41.7431 38.25 40.5 38.25H15.75C14.5069 38.25 13.5 39.2569 13.5 40.5C13.5 41.7431 14.5069 42.75 15.75 42.75Z" fill="#F68820"/>
<path d="M44.4375 63H39.9375V58.5H44.4375V63Z" fill="#808080"/>
<path d="M29.25 58.5H39.9375V63H29.25V58.5Z" fill="#B3B4B6"/>
<path d="M48.9375 63H20.8125C18.3274 63 16.3125 65.0149 16.3125 67.5H53.4375C53.4375 65.0149 51.4226 63 48.9375 63Z" fill="#DBDEE3"/>
<path d="M48.9375 63H44.4375C41.9524 63 39.9375 65.0149 39.9375 67.5H53.4375C53.4375 65.0149 51.4226 63 48.9375 63Z" fill="#808080"/>
<path d="M16.875 0H13.5C6.04463 0 0 6.04463 0 13.5C0 20.9554 6.04463 27 13.5 27H16.875C24.3304 27 30.375 20.9554 30.375 13.5C30.375 6.04463 24.3304 0 16.875 0Z" fill="#5C76B2"/>
<path d="M13.5 27C20.9558 27 27 20.9558 27 13.5C27 6.04416 20.9558 0 13.5 0C6.04463 0 0 6.04463 0 13.5C0 20.9554 6.04463 27 13.5 27Z" fill="#6FA4D8"/>
<path d="M13.5 24.75C19.7132 24.75 24.75 19.7132 24.75 13.5C24.75 7.2868 19.7132 2.25 13.5 2.25C7.2868 2.25 2.25 7.2868 2.25 13.5C2.25 19.7132 7.2868 24.75 13.5 24.75Z" fill="#55525B"/>
<path d="M13.5 14.0625C13.1895 14.0625 12.9375 13.8105 12.9375 13.5V4.5C12.9375 4.1895 13.1895 3.9375 13.5 3.9375C13.8105 3.9375 14.0625 4.1895 14.0625 4.5V13.5C14.0625 13.8105 13.8105 14.0625 13.5 14.0625Z" fill="#6FA4D8"/>
<path d="M8.72774 18.8359C8.58374 18.8359 8.43974 18.7808 8.32949 18.6716C8.11012 18.4523 8.11012 18.0956 8.32949 17.8763L13.1017 13.1029C13.3211 12.8835 13.6777 12.8835 13.8971 13.1029C14.1165 13.3223 14.1165 13.6789 13.8971 13.8983L9.12487 18.6716C9.01574 18.7808 8.87174 18.8359 8.72774 18.8359Z" fill="#6FA4D8"/>
<path d="M13.5 15.75C14.7426 15.75 15.75 14.7426 15.75 13.5C15.75 12.2574 14.7426 11.25 13.5 11.25C12.2574 11.25 11.25 12.2574 11.25 13.5C11.25 14.7426 12.2574 15.75 13.5 15.75Z" fill="#F68820"/>
<path d="M13.5 14.625C14.1213 14.625 14.625 14.1213 14.625 13.5C14.625 12.8787 14.1213 12.375 13.5 12.375C12.8787 12.375 12.375 12.8787 12.375 13.5C12.375 14.1213 12.8787 14.625 13.5 14.625Z" fill="#DBDEE3"/>
<path d="M5.625 14.0625H4.5C4.1895 14.0625 3.9375 13.8105 3.9375 13.5C3.9375 13.1895 4.1895 12.9375 4.5 12.9375H5.625C5.9355 12.9375 6.1875 13.1895 6.1875 13.5C6.1875 13.8105 5.9355 14.0625 5.625 14.0625Z" fill="#F68820"/>
<path d="M13.5 23.0625C13.1895 23.0625 12.9375 22.8105 12.9375 22.5V21.375C12.9375 21.0645 13.1895 20.8125 13.5 20.8125C13.8105 20.8125 14.0625 21.0645 14.0625 21.375V22.5C14.0625 22.8105 13.8105 23.0625 13.5 23.0625Z" fill="#F68820"/>
<path d="M22.5 14.0625H21.375C21.0645 14.0625 20.8125 13.8105 20.8125 13.5C20.8125 13.1895 21.0645 12.9375 21.375 12.9375H22.5C22.8105 12.9375 23.0625 13.1895 23.0625 13.5C23.0625 13.8105 22.8105 14.0625 22.5 14.0625Z" fill="#F68820"/>
<path d="M50.625 42.75C49.3819 42.75 48.375 41.7431 48.375 40.5C48.375 39.2569 49.3819 38.25 50.625 38.25C51.8681 38.25 52.875 39.2569 52.875 40.5C52.875 41.7431 51.8681 42.75 50.625 42.75Z" fill="#F68820"/>
<path d="M49.7813 21.0938L50.625 21.9375L53.1563 19.4063C53.622 18.9405 54.378 18.9405 54.8438 19.4063C55.3095 19.872 55.3095 20.628 54.8438 21.0938L51.4688 24.4688C51.003 24.9345 50.247 24.9345 49.7813 24.4688L48.0938 22.7813C47.628 22.3155 47.628 21.5595 48.0938 21.0938C48.5595 20.628 49.3155 20.628 49.7813 21.0938Z" fill="#5C76B2"/>
<path d="M49.7813 30.0938L50.625 30.9375L53.1563 28.4063C53.622 27.9405 54.378 27.9405 54.8438 28.4063C55.3095 28.872 55.3095 29.628 54.8438 30.0938L51.4688 33.4688C51.003 33.9345 50.247 33.9345 49.7813 33.4688L48.0938 31.7813C47.628 31.3155 47.628 30.5595 48.0938 30.0938C48.5595 29.628 49.3155 29.628 49.7813 30.0938Z" fill="#5C76B2"/>
</svg>
